<svg xmlns="http://www.w3.org/2000/svg" viewBox="0 0 104 104"><rect width="104" height="104" rx="23" fill="#080f1e"/><defs><linearGradient id="g" x1="0" y1="0" x2="1" y2="1"><stop stop-color="#c8ecff"/><stop offset=".55" stop-color="#5cbacd"/><stop offset="1" stop-color="#7f7abe"/></linearGradient></defs><g transform="translate(6 7)" fill="none" stroke="url(#g)" stroke-linecap="round" stroke-linejoin="round"><path d="M46 80C24 70 24 54 34 43C43 33 42 25 36 18M47 78C64 68 67 52 58 41C50 31 53 23 61 15M43 78C39 61 49 52 48 40C47 28 47 21 48 12" stroke-width="8"/><path d="M31 20C22 14 15 18 14 26C20 22 26 25 29 30M49 13C43 5 35 7 33 14C40 12 44 17 46 23M63 16C72 10 79 14 79 22C73 18 67 21 63 27" stroke-width="5"/></g></svg>
